<svg width="84" height="36" viewBox="0 0 84 36" fill="none" xmlns="http://www.w3.org/2000/svg">
<path d="M4.38787 35.125C3.60787 35.155 3.05287 35.035 2.72287 34.765C2.42287 34.495 2.09287 34.12 1.73287 33.64L1.55287 33.775C1.40287 33.535 1.32787 33.235 1.32787 32.875C1.32787 32.665 1.35787 32.515 1.41787 32.425L1.28287 32.515L1.19287 32.29C1.13287 32.17 1.10287 32.065 1.10287 31.975C1.10287 31.795 1.16287 31.585 1.28287 31.345C1.22287 31.105 1.13287 30.82 1.01287 30.49C0.922871 30.16 0.877871 29.845 0.877871 29.545C0.877871 29.275 0.907871 29.065 0.967871 28.915C0.967871 28.945 0.967871 28.96 0.967871 28.96C0.997871 28.96 1.01287 28.93 1.01287 28.87L0.967871 28.915C0.937871 29.065 1.01287 29.14 1.19287 29.14C1.28287 29.14 1.32787 29.095 1.32787 29.005C1.32787 28.945 1.28287 28.87 1.19287 28.78C1.10287 28.66 1.01287 28.645 0.922871 28.735V27.385L1.19287 27.25C1.13287 27.04 1.07287 26.815 1.01287 26.575C0.952871 26.305 0.922871 26.05 0.922871 25.81L1.19287 25.63C1.01287 25.51 0.922871 25.255 0.922871 24.865C0.922871 24.655 0.952871 24.43 1.01287 24.19C1.07287 23.95 1.11787 23.77 1.14787 23.65C1.11787 23.5 1.07287 23.35 1.01287 23.2C0.982871 23.02 0.967871 22.84 0.967871 22.66C0.967871 22.51 0.982871 22.375 1.01287 22.255C1.04287 22.105 1.10287 21.97 1.19287 21.85L1.01287 21.31L1.28287 21.13C1.10287 20.83 1.01287 20.53 1.01287 20.23C1.01287 20.05 1.05787 19.9 1.14787 19.78C1.20787 19.81 1.28287 19.765 1.37287 19.645C1.49287 19.495 1.52287 19.39 1.46287 19.33H1.19287V18.25L1.46287 18.16L1.28287 17.35L1.46287 17.26C1.46287 17.2 1.43287 17.155 1.37287 17.125C1.31287 17.065 1.28287 17.02 1.28287 16.99L1.46287 17.08V16.99L1.55287 15.46C1.58287 15.01 1.62787 14.56 1.68787 14.11C1.77787 13.66 1.82287 13.21 1.82287 12.76L2.09287 12.49H1.82287L2.09287 11.995V10.33L2.54287 10.195H2.22787L2.36287 9.25C2.15287 9.07 1.94287 9.025 1.73287 9.115L1.46287 10.06L0.742871 10.195V9.79C0.982871 9.64 1.14787 9.385 1.23787 9.025C1.32787 8.665 1.43287 8.305 1.55287 7.945C1.70287 7.585 1.92787 7.345 2.22787 7.225L2.27287 7.315V7.225L2.76787 5.965C2.82787 5.815 2.88787 5.68 2.94787 5.56C3.00787 5.44 3.05287 5.305 3.08287 5.155H3.12787C3.27787 5.155 3.35287 5.065 3.35287 4.885C3.35287 4.705 3.38287 4.615 3.44287 4.615H3.57787L4.11787 3.985C4.62787 3.985 5.12287 4.105 5.60287 4.345C6.11287 4.585 6.42787 5.005 6.54787 5.605L5.37787 7.585C5.37787 7.795 5.33287 8.02 5.24287 8.26C5.18287 8.5 5.07787 8.695 4.92787 8.845L5.10787 9.025L4.92787 9.655L4.65787 9.79L4.29787 11.68L4.16287 11.545L4.38787 12.22C4.26787 12.13 4.19287 12.16 4.16287 12.31C4.13287 12.46 4.17787 12.52 4.29787 12.49C4.29787 12.91 4.28287 13.375 4.25287 13.885C4.22287 14.395 3.99787 14.755 3.57787 14.965L3.89287 15.505L3.84787 16.585L3.44287 16.72C3.53287 16.99 3.57787 17.275 3.57787 17.575C3.60787 17.845 3.62287 18.13 3.62287 18.43H3.35287L3.44287 18.52L3.39787 18.7C3.39787 18.91 3.44287 19.105 3.53287 19.285C3.65287 19.435 3.68287 19.63 3.62287 19.87C3.59287 19.81 3.54787 19.825 3.48787 19.915C3.42787 20.005 3.41287 20.08 3.44287 20.14C3.47287 20.17 3.51787 20.185 3.57787 20.185C3.66787 20.185 3.68287 20.2 3.62287 20.23H3.35287C3.35287 20.44 3.39787 20.68 3.48787 20.95C3.60787 21.22 3.54787 21.34 3.30787 21.31L3.17287 21.85C3.20287 21.91 3.26287 21.94 3.35287 21.94C3.44287 21.94 3.51787 21.94 3.57787 21.94C3.57787 22.18 3.54787 22.42 3.48787 22.66C3.45787 22.9 3.41287 23.14 3.35287 23.38L3.62287 23.47V23.92H3.44287L3.62287 24.73C3.59287 24.7 3.57787 24.745 3.57787 24.865C3.57787 24.955 3.59287 25.03 3.62287 25.09C3.65287 25.12 3.62287 25.12 3.53287 25.09C3.47287 25.06 3.44287 25.06 3.44287 25.09L3.62287 25.18C3.62287 25.6 3.60787 26.02 3.57787 26.44C3.54787 26.86 3.54787 27.28 3.57787 27.7C3.57787 27.85 3.66787 27.925 3.84787 27.925V26.98C4.08787 26.92 4.20787 26.83 4.20787 26.71C4.20787 26.56 4.10287 26.44 3.89287 26.35C4.07287 26.2 4.22287 26.005 4.34287 25.765C4.46287 25.525 4.56787 25.3 4.65787 25.09L4.16287 25C4.25287 24.79 4.32787 24.475 4.38787 24.055C4.44787 23.605 4.52287 23.185 4.61287 22.795C4.70287 22.375 4.82287 22.12 4.97287 22.03C4.91287 21.97 4.88287 21.85 4.88287 21.67C4.88287 21.49 4.91287 21.31 4.97287 21.13C5.03287 20.92 5.10787 20.83 5.19787 20.86L5.73787 17.71C5.82787 17.83 5.90287 17.77 5.96287 17.53C6.05287 17.29 6.11287 17.02 6.14287 16.72C6.20287 16.42 6.24787 16.24 6.27787 16.18L6.00787 16L6.27787 15.91L6.32287 15.19L6.18787 15.1L6.27787 14.83C6.42787 13.96 6.62287 13.105 6.86287 12.265C7.13287 11.395 7.31287 10.525 7.40287 9.655C7.43287 9.655 7.44787 9.67 7.44787 9.7C7.47787 9.7 7.50787 9.7 7.53787 9.7C7.65787 9.7 7.71787 9.61 7.71787 9.43C7.71787 9.28 7.70287 9.145 7.67287 9.025C7.64287 8.875 7.62787 8.77 7.62787 8.71L7.94287 8.44C8.00287 8.14 8.06287 7.87 8.12287 7.63C8.18287 7.36 8.21287 7.105 8.21287 6.865C8.21287 6.655 8.19787 6.505 8.16787 6.415L8.52787 6.235L8.21287 6.145C8.27287 5.935 8.37787 5.575 8.52787 5.065C8.67787 4.555 8.85787 4.03 9.06787 3.49C9.27787 2.92 9.50287 2.425 9.74287 2.005C9.98287 1.555 10.2079 1.315 10.4179 1.285L10.9579 1.645V1.735C10.9579 1.945 11.0629 2.08 11.2729 2.14C11.5129 2.17 11.7079 2.185 11.8579 2.185L12.0379 2.545L11.7679 2.905L12.5779 3.265C12.6379 3.775 12.6229 4.3 12.5329 4.84C12.4729 5.35 12.4579 5.875 12.4879 6.415H12.2179L12.3079 7.315L12.0379 7.405L12.3079 7.945L12.2179 9.115L11.7679 9.385L12.2179 9.655C12.0979 9.805 12.0379 10.03 12.0379 10.33C12.0379 10.48 12.0379 10.63 12.0379 10.78C12.0679 10.9 12.0979 11.02 12.1279 11.14L11.7679 11.455V12.22L12.0379 12.355L11.8579 12.49C11.8279 12.64 11.8129 12.805 11.8129 12.985C11.8129 13.165 11.8129 13.33 11.8129 13.48C11.8129 13.87 11.8279 14.26 11.8579 14.65C11.8879 15.01 11.9179 15.385 11.9479 15.775L11.6779 15.91L11.8579 16.45C11.7679 16.45 11.6929 16.51 11.6329 16.63C11.5729 16.72 11.5579 16.81 11.5879 16.9L11.9479 17.17C11.9479 17.5 11.9629 18.13 11.9929 19.06C12.0529 19.96 12.1129 20.95 12.1729 22.03C12.2329 23.11 12.3079 24.07 12.3979 24.91C12.5179 25.75 12.6379 26.26 12.7579 26.44L12.3979 26.575H12.6679C12.6979 26.965 12.7129 27.415 12.7129 27.925C12.7429 28.405 12.8329 28.645 12.9829 28.645C13.1329 28.645 13.3279 28.405 13.5679 27.925L13.3879 27.7L13.8379 27.25C13.7479 26.92 13.7029 26.68 13.7029 26.53C13.7029 26.38 13.7179 26.23 13.7479 26.08C13.8079 25.9 13.8679 25.66 13.9279 25.36L14.1979 25.27L14.1079 24.64L14.4679 24.37V23.47L14.8279 23.11L14.6479 22.3H14.6929C14.8129 22.3 14.8729 22.24 14.8729 22.12C14.8729 21.97 14.8279 21.91 14.7379 21.94L14.9179 21.22C15.0079 21.22 15.1129 20.995 15.2329 20.545C15.3829 20.095 15.5179 19.57 15.6379 18.97C15.7579 18.34 15.8479 17.77 15.9079 17.26C15.9979 16.75 16.0579 16.435 16.0879 16.315L16.4479 16.27L16.2679 15.64L16.7179 14.29L16.9879 14.155L17.1229 13.3L16.8979 13.03L17.3929 12.49L17.2579 11.545L17.9329 11.14L17.5279 10.465C17.7379 10.225 17.8729 9.955 17.9329 9.655C18.0229 9.355 18.1279 9.055 18.2479 8.755L18.7879 8.71L18.5179 8.485L19.0579 8.305C19.0879 8.425 19.1779 8.485 19.3279 8.485C19.4479 8.485 19.5679 8.425 19.6879 8.305L20.7679 9.295V9.655L21.3529 10.06L21.1729 10.465H21.3529C21.4129 10.945 21.4729 11.365 21.5329 11.725C21.5929 12.055 21.6229 12.4 21.6229 12.76C21.6229 13.18 21.5629 13.645 21.4429 14.155C21.5929 14.395 21.6829 14.785 21.7129 15.325C21.7729 15.865 21.8029 16.42 21.8029 16.99C21.8029 17.38 21.7879 17.74 21.7579 18.07C21.7579 18.4 21.7429 18.67 21.7129 18.88C21.7429 18.82 21.8029 18.835 21.8929 18.925C21.9829 19.015 22.0129 19.09 21.9829 19.15H21.7129L21.7579 19.06L21.6229 18.97C21.6229 18.97 21.6079 18.985 21.5779 19.015C21.5779 19.045 21.5779 19.075 21.5779 19.105C21.5779 19.225 21.6079 19.36 21.6679 19.51C21.7579 19.66 21.8629 19.72 21.9829 19.69L22.2529 21.4H21.7579V21.49H21.9829L22.1629 21.85C22.1929 21.88 22.2229 21.835 22.2529 21.715C22.2829 21.595 22.2979 21.55 22.2979 21.58L22.2529 22.84C22.2829 22.87 22.3279 22.855 22.3879 22.795C22.4479 22.735 22.4929 22.69 22.5229 22.66C22.5529 23.14 22.6429 23.635 22.7929 24.145C22.9429 24.625 23.0929 25.09 23.2429 25.54L24.0529 26.305C24.2629 26.215 24.4429 26.11 24.5929 25.99C24.7729 25.84 24.9829 25.78 25.2229 25.81L25.4929 25.09C25.4629 25.03 25.4479 24.94 25.4479 24.82C25.4479 24.46 25.7329 24.28 26.3029 24.28V24.235C26.3029 24.145 26.2729 24.055 26.2129 23.965C26.1829 23.845 26.1529 23.74 26.1229 23.65L26.3929 23.2L26.6629 23.29L26.4829 22.84C26.5129 22.72 26.6179 22.66 26.7979 22.66C26.9779 22.63 27.1129 22.6 27.2029 22.57V22.48L26.7529 22.21L27.2029 21.22C27.3829 21.19 27.5629 20.98 27.7429 20.59C27.9529 20.17 28.1029 19.9 28.1929 19.78H28.4629L28.5529 20.41C28.4029 20.65 28.2979 20.92 28.2379 21.22C28.2079 21.49 28.1629 21.76 28.1029 22.03H28.0579C27.9979 22.03 27.9229 22 27.8329 21.94C27.7729 21.85 27.7129 21.82 27.6529 21.85L27.5629 22.21L28.0129 22.3C27.8629 22.57 27.7129 22.855 27.5629 23.155C27.4129 23.455 27.3229 23.77 27.2929 24.1L27.0229 24.28C26.9029 24.49 26.6929 24.865 26.3929 25.405C26.1229 25.945 25.8229 26.455 25.4929 26.935C25.1929 27.385 24.9229 27.625 24.6829 27.655V27.97C24.4429 28.3 24.1129 28.57 23.6929 28.78C23.3029 28.96 22.9129 29.05 22.5229 29.05C22.5229 29.02 22.5079 28.96 22.4779 28.87C22.4779 28.75 22.4629 28.72 22.4329 28.78L22.3429 29.005C22.3129 29.125 22.2979 29.14 22.2979 29.05L22.3429 29.005C22.3429 28.855 22.3279 28.765 22.2979 28.735L22.2529 28.78L21.4429 28.87L20.9029 28.465C20.9029 28.405 20.8879 28.33 20.8579 28.24C20.8279 28.12 20.7679 28.06 20.6779 28.06L20.9029 27.43H20.3629C20.3029 27.4 20.2729 27.34 20.2729 27.25C20.2729 27.19 20.3029 27.13 20.3629 27.07C20.4229 26.98 20.4379 26.92 20.4079 26.89H20.0929L19.8679 26.35L20.1379 26.305L19.8679 26.08C19.7179 25.96 19.6429 25.75 19.6429 25.45C19.6429 25.3 19.6429 25.165 19.6429 25.045C19.6729 24.895 19.6879 24.76 19.6879 24.64C19.6879 24.52 19.6579 24.37 19.5979 24.19H19.3279C19.3279 23.86 19.2829 23.38 19.1929 22.75C19.1329 22.09 19.0429 21.385 18.9229 20.635C18.8029 19.855 18.6979 19.12 18.6079 18.43C18.5179 17.74 18.4729 17.185 18.4729 16.765C18.4729 16.465 18.4879 16.27 18.5179 16.18H18.2479C18.2479 15.91 18.2179 15.64 18.1579 15.37C18.0979 15.1 18.0229 14.86 17.9329 14.65V14.83C17.6329 15.25 17.4679 15.7 17.4379 16.18L16.8079 16.45V16.585H17.2579C17.1379 16.915 17.0029 17.455 16.8529 18.205C16.7329 18.955 16.5979 19.69 16.4479 20.41C16.2979 21.1 16.1179 21.55 15.9079 21.76L16.2679 21.85C16.2079 21.97 16.1329 22.165 16.0429 22.435C15.9529 22.705 15.9079 22.96 15.9079 23.2C15.9079 23.32 15.9379 23.44 15.9979 23.56L15.5479 24.28V25.18L15.3679 25.27C15.3079 26.32 15.2479 27.385 15.1879 28.465C15.1279 29.515 14.9779 30.565 14.7379 31.615L14.4679 31.705L14.6479 32.155L14.2879 32.515L13.8379 32.29L13.7479 32.56C13.5679 32.5 13.4329 32.47 13.3429 32.47C13.1329 32.47 12.9079 32.515 12.6679 32.605C12.4279 32.695 12.1879 32.725 11.9479 32.695V32.65C11.9479 32.59 11.9779 32.515 12.0379 32.425C12.1279 32.335 12.1279 32.29 12.0379 32.29H11.4979L10.9579 31.345L11.2279 31.165L10.5979 29.86C10.7179 29.83 10.7779 29.77 10.7779 29.68C10.7779 29.62 10.7329 29.575 10.6429 29.545C10.5829 29.485 10.5079 29.485 10.4179 29.545L10.3279 28.87L10.5079 28.78L10.3279 27.79H10.0579V26.35L9.78787 26.305H10.0579C9.90787 26.155 9.80287 25.93 9.74287 25.63C9.68287 25.33 9.65287 25.03 9.65287 24.73C9.65287 24.61 9.65287 24.505 9.65287 24.415C9.65287 24.295 9.66787 24.19 9.69787 24.1H9.51787C9.54787 23.53 9.50287 22.975 9.38287 22.435C9.26287 21.895 9.18787 21.34 9.15787 20.77L9.42787 20.68L9.15787 20.5C9.12787 20.14 9.08287 19.78 9.02287 19.42C8.96287 19.06 8.94787 18.7 8.97787 18.34L9.51787 18.16C9.39787 18.13 9.27787 18.055 9.15787 17.935C9.03787 17.815 8.94787 17.8 8.88787 17.89L9.06787 17.17L8.79787 16.81L8.97787 16.315L8.70787 16.045L8.88787 14.65C8.70787 14.2 8.61787 13.735 8.61787 13.255C8.61787 12.775 8.58787 12.295 8.52787 11.815L8.79787 11.725C8.79787 11.665 8.72287 11.605 8.57287 11.545C8.45287 11.455 8.37787 11.455 8.34787 11.545C8.31787 11.815 8.22787 12.19 8.07787 12.67C7.95787 13.15 7.77787 13.465 7.53787 13.615C7.56787 13.615 7.58287 13.63 7.58287 13.66C7.58287 13.72 7.55287 13.81 7.49287 13.93C7.46287 14.02 7.43287 14.095 7.40287 14.155L7.62787 14.38H7.53787L6.99787 15.235C7.23787 15.385 7.35787 15.505 7.35787 15.595C7.35787 15.715 7.31287 15.88 7.22287 16.09C7.13287 16.27 7.01287 16.6 6.86287 17.08L6.45787 17.26L6.32287 17.44H6.81787C6.54787 18.07 6.39787 18.52 6.36787 18.79C6.33787 19.06 6.30787 19.54 6.27787 20.23L6.00787 20.41L6.05287 21.13L5.78287 21.04L5.64787 21.67L5.51287 21.31V21.76C5.57287 21.88 5.70787 21.91 5.91787 21.85C5.85787 22.18 5.73787 22.495 5.55787 22.795C5.40787 23.095 5.30287 23.41 5.24287 23.74H5.64787C5.43787 24.04 5.33287 24.37 5.33287 24.73C5.33287 25.09 5.30287 25.435 5.24287 25.765C5.21287 25.705 5.13787 25.69 5.01787 25.72C4.89787 25.75 4.86787 25.81 4.92787 25.9L5.10787 26.035L4.83787 26.08L5.19787 26.575L4.92787 26.71L5.19787 26.845L4.92787 26.89L4.97287 28.33L4.65787 28.24C4.59787 28.27 4.59787 28.36 4.65787 28.51C4.71787 28.63 4.80787 28.63 4.92787 28.51V29.005L4.79287 28.915C4.67287 28.915 4.62787 29.05 4.65787 29.32C4.68787 29.59 4.59787 29.68 4.38787 29.59L4.83787 29.725L4.56787 29.815C4.71787 29.965 4.79287 30.28 4.79287 30.76C4.79287 31.03 4.77787 31.315 4.74787 31.615C4.71787 31.915 4.68787 32.14 4.65787 32.29L4.38787 32.425L4.56787 32.965H4.16287V33.055C4.28287 33.085 4.38787 33.145 4.47787 33.235C4.59787 33.295 4.62787 33.415 4.56787 33.595L3.98287 33.865V33.955L4.56787 34.855L4.38787 35.125ZM39.5336 32.155C39.3236 32.185 39.0686 32.095 38.7686 31.885C38.4686 31.645 38.2586 31.45 38.1386 31.3L38.1836 30.895C38.1536 30.895 38.1236 30.91 38.0936 30.94C38.0636 30.97 38.0336 30.985 38.0036 30.985L38.1836 29.86C38.2436 29.86 38.2586 29.785 38.2286 29.635C38.2286 29.485 38.2286 29.395 38.2286 29.365L38.1836 29.32L38.2286 28.555H38.4086L38.1836 28.33L38.2736 27.655L38.3636 27.61L38.2736 27.475L38.3636 26.98L38.5436 26.89C38.5436 26.83 38.5136 26.77 38.4536 26.71C38.4236 26.62 38.4086 26.545 38.4086 26.485C38.4086 26.365 38.5136 26.2 38.7236 25.99L38.5436 25.9L38.8136 25.675L38.5886 25.585C38.7386 25.465 38.7686 25.36 38.6786 25.27C38.6186 25.15 38.6336 25.03 38.7236 24.91L39.0386 24.46L38.8136 24.235L38.8586 23.965C39.0086 23.965 39.0836 23.92 39.0836 23.83C39.0836 23.77 39.0686 23.695 39.0386 23.605C39.0086 23.515 38.9936 23.425 38.9936 23.335H39.0386L39.0836 23.425L39.2186 22.525L39.3086 22.48V21.805H39.5336L39.3986 21.31L39.3536 21.355L38.4086 22.885L38.1386 22.93L37.7786 23.425L38.0036 23.515L37.8686 23.74H37.5086C37.5686 23.86 37.5986 23.95 37.5986 24.01C37.5986 24.13 37.5236 24.235 37.3736 24.325C37.2236 24.385 37.1186 24.43 37.0586 24.46L37.1486 24.73L36.7886 25.315L36.5636 25.225C36.5636 25.225 36.5486 25.255 36.5186 25.315C36.5186 25.375 36.4886 25.405 36.4286 25.405L36.2036 25.315L36.1136 25.675L36.3386 25.72C36.2186 25.84 36.1286 25.945 36.0686 26.035C36.0086 26.125 35.8586 26.17 35.6186 26.17C35.5886 26.26 35.6186 26.35 35.7086 26.44C35.4686 26.77 35.1986 27.1 34.8986 27.43C34.6286 27.76 34.3286 28.045 33.9986 28.285H33.8636L33.5036 28.645L33.3236 28.555L33.2336 28.87L32.3786 29.23L32.2886 29.455L31.9736 29.365L31.7936 29.635H31.6136C30.8936 29.635 30.2936 29.44 29.8136 29.05C29.7236 28.87 29.6786 28.66 29.6786 28.42C29.6186 28.42 29.5736 28.45 29.5436 28.51C29.5136 28.54 29.4836 28.57 29.4536 28.6L29.1836 27.475L29.3186 27.205L29.2286 27.115L29.2736 26.755H29.4086L29.7686 25.135C29.7986 25.135 29.8136 25.15 29.8136 25.18C29.8436 25.21 29.8736 25.225 29.9036 25.225C29.9636 25.225 29.9936 25.18 29.9936 25.09C29.9936 25 29.9786 24.94 29.9486 24.91L29.8586 24.955C29.9186 24.505 30.1436 24.175 30.5336 23.965C30.4736 23.905 30.4436 23.83 30.4436 23.74C30.4436 23.65 30.4586 23.575 30.4886 23.515C30.5486 23.425 30.5936 23.335 30.6236 23.245L30.7586 23.29V23.245L30.7136 23.155L30.8936 23.065C30.9236 23.065 30.9086 23.02 30.8486 22.93C30.8186 22.84 30.8636 22.855 30.9836 22.975V22.66H31.2536C31.3436 22.54 31.4186 22.405 31.4786 22.255C31.5386 22.105 31.5986 21.955 31.6586 21.805H32.1086L31.9736 21.49L32.1986 21.22L32.4686 21.31L32.6036 20.725L33.3236 20.185L33.0986 20.05L33.3686 19.96L33.4136 20.23C33.4136 19.9 33.5486 19.66 33.8186 19.51H33.8636L33.9086 19.735L33.9536 19.645L33.9086 19.42L34.4036 19.06L34.4486 19.24C34.4786 18.94 34.6436 18.715 34.9436 18.565C35.2436 18.385 35.5586 18.22 35.8886 18.07C36.2186 17.92 36.3986 17.755 36.4286 17.575L36.7886 17.62C36.8186 17.59 36.8336 17.545 36.8336 17.485C36.8636 17.395 36.8486 17.35 36.7886 17.35C37.0886 17.32 37.4336 17.215 37.8236 17.035H38.2736L38.0486 16.9L38.0936 16.855C38.6336 16.705 39.1886 16.63 39.7586 16.63C40.1486 16.63 40.5086 16.75 40.8386 16.99L41.7386 17.35C41.7686 17.38 41.7386 17.395 41.6486 17.395C41.5886 17.395 41.5586 17.425 41.5586 17.485C41.5586 17.515 41.6036 17.56 41.6936 17.62C41.7836 17.65 41.8586 17.665 41.9186 17.665L41.9636 17.53C41.9936 17.53 42.0086 17.59 42.0086 17.71C42.0386 17.8 42.0686 17.815 42.0986 17.755L42.4586 18.115H42.2786L42.1886 19.42H42.0086L41.9186 19.645L42.0536 19.96C42.0536 19.99 42.0386 20.05 42.0086 20.14C41.9786 20.2 41.9636 20.185 41.9636 20.095V20.005L41.8286 20.05C41.8586 20.11 41.8736 20.2 41.8736 20.32C41.8736 20.41 41.8586 20.515 41.8286 20.635C41.8286 20.725 41.8136 20.83 41.7836 20.95C41.6636 20.95 41.5886 20.965 41.5586 20.995L41.4236 21.355C41.3936 21.475 41.4086 21.55 41.4686 21.58C41.5286 21.58 41.5586 21.595 41.5586 21.625L41.4686 21.805C41.4686 21.925 41.4686 22.045 41.4686 22.165C41.4986 22.285 41.4986 22.42 41.4686 22.57H41.1086L40.6136 22.615C40.7336 22.795 40.8686 22.945 41.0186 23.065C41.1686 23.155 41.2436 23.2 41.2436 23.2C41.3036 23.26 41.3186 23.32 41.2886 23.38C41.2286 23.53 41.1686 23.68 41.1086 23.83C41.0486 23.98 40.9886 24.13 40.9286 24.28L41.0636 24.325C41.0936 24.355 41.0786 24.37 41.0186 24.37C40.9886 24.37 40.9886 24.385 41.0186 24.415L41.0636 24.46C41.0936 24.49 41.1086 24.535 41.1086 24.595C41.1086 24.715 41.0636 24.835 40.9736 24.955C40.8836 25.075 40.8086 25.21 40.7486 25.36H40.8836C40.8836 25.6 40.8686 25.93 40.8386 26.35C40.8086 26.74 40.7186 27.025 40.5686 27.205H40.5236V26.98H40.2986L40.6136 27.43C40.4936 27.82 40.4186 28.24 40.3886 28.69C40.3586 29.11 40.3136 29.53 40.2536 29.95L40.5686 30.355H40.6136V30.04L40.8836 29.86H41.1086L41.1986 30.175L41.2886 29.635C41.2886 29.605 41.2886 29.59 41.2886 29.59C41.3186 29.59 41.3336 29.59 41.3336 29.59H41.4236C41.4836 29.38 41.4986 29.23 41.4686 29.14C41.6486 28.9 41.8586 28.585 42.0986 28.195C42.3686 27.775 42.6236 27.37 42.8636 26.98C43.1036 26.56 43.2536 26.23 43.3136 25.99C43.3736 25.99 43.4186 26.02 43.4486 26.08C43.4786 26.14 43.5086 26.17 43.5386 26.17C43.5686 26.17 43.5686 26.11 43.5386 25.99C43.5386 25.84 43.5086 25.78 43.4486 25.81C43.5386 25.69 43.5986 25.555 43.6286 25.405C43.6586 25.225 43.7336 25.135 43.8536 25.135C44.0036 25.135 44.0786 25.18 44.0786 25.27C44.0786 25.33 44.0636 25.405 44.0336 25.495C44.0036 25.555 43.9886 25.615 43.9886 25.675L43.9436 26.62L43.6736 26.845L43.7636 26.89H43.8086L43.6736 26.98L43.8086 27.115H43.6736C43.6736 27.265 43.6436 27.415 43.5836 27.565C43.5536 27.715 43.5086 27.865 43.4486 28.015L43.1786 28.105L43.2686 28.285L43.0436 28.6L42.7736 28.645L42.1886 30.13L41.9186 30.085L41.9636 30.445L40.7936 31.795L40.5686 31.75L40.5236 32.02L40.3436 32.155H39.5336ZM31.3886 28.105H31.4786L32.4686 27.61C32.5286 27.67 32.5436 27.7 32.5136 27.7C32.4836 27.7 32.4686 27.7 32.4686 27.7C32.4686 27.79 32.4986 27.865 32.5586 27.925C32.6186 27.955 32.6636 27.97 32.6936 27.97L32.6036 27.52C32.6636 27.34 32.7836 27.295 32.9636 27.385L32.9186 27.475L33.2336 27.34H33.0086C32.9786 27.25 33.0086 27.205 33.0986 27.205L33.8186 27.025C33.8486 26.995 33.8036 26.98 33.6836 26.98C33.5636 26.95 33.5036 26.92 33.5036 26.89L33.7736 26.755C34.0136 26.635 34.2086 26.5 34.3586 26.35C34.5086 26.2 34.5836 26.125 34.5836 26.125C34.6436 26.215 34.7336 26.26 34.8536 26.26H34.8986V25.675L35.2136 25.36L35.3936 25.405L35.3486 25.18L35.7086 25.045C35.7686 24.775 35.9036 24.58 36.1136 24.46C36.3236 24.31 36.4886 24.145 36.6086 23.965H36.5186C36.5786 23.815 36.6986 23.725 36.8786 23.695C37.0586 23.635 37.1636 23.515 37.1936 23.335L37.1036 23.155L37.5986 22.75L37.5086 22.705C37.5686 22.645 37.5986 22.585 37.5986 22.525C37.6286 22.435 37.7036 22.405 37.8236 22.435L38.0486 22.48V22.03L38.2286 21.715H38.5886C38.6486 21.535 38.5886 21.445 38.4086 21.445L39.0386 20.59L39.3086 20.725V20.635L39.0386 20.545L39.2186 20.275L39.3986 20.23L39.4436 20.185C39.3536 20.185 39.3236 20.155 39.3536 20.095C39.3836 20.005 39.4436 19.975 39.5336 20.005L39.5786 19.645L39.8036 19.555H39.7136L39.8036 19.33H40.1186L40.0286 18.655L40.1186 18.565L39.9836 18.43C39.9236 18.64 39.7736 18.76 39.5336 18.79C39.2936 18.82 39.0836 18.835 38.9036 18.835C38.9636 18.865 38.9786 18.925 38.9486 19.015C38.9186 19.075 38.8736 19.09 38.8136 19.06L38.5436 18.925H38.4086L38.5436 19.24L38.1386 19.15L38.2286 19.33H38.0036V19.51L37.5986 19.78C37.5686 19.78 37.4336 19.765 37.1936 19.735C36.9836 19.705 36.9386 19.75 37.0586 19.87H37.1486C37.1486 20.02 37.1036 20.08 37.0136 20.05C36.9236 20.02 36.8636 20.005 36.8336 20.005L36.9236 20.05C36.3536 20.32 35.8436 20.71 35.3936 21.22C35.4536 21.25 35.4386 21.295 35.3486 21.355C35.2886 21.415 35.2286 21.4 35.1686 21.31V21.58L35.0786 21.49C35.0786 21.64 34.9886 21.775 34.8086 21.895C34.6286 21.985 34.4636 22.06 34.3136 22.12C34.2236 22.3 34.1186 22.48 33.9986 22.66C33.8786 22.84 33.7436 22.975 33.5936 23.065L33.5036 23.02L33.0086 23.335V23.47C33.0086 23.77 32.9186 24.04 32.7386 24.28C32.5886 24.49 32.4236 24.715 32.2436 24.955L32.1086 24.82L31.9736 25.405H31.6586V25.99H31.2536C31.2236 25.99 31.2236 26.02 31.2536 26.08C31.2836 26.14 31.3286 26.185 31.3886 26.215C31.3586 26.455 31.2836 26.695 31.1636 26.935C31.0736 27.145 31.0136 27.37 30.9836 27.61H31.2086C31.1486 27.85 31.2386 27.955 31.4786 27.925L31.3886 28.105ZM31.4786 26.26C31.4786 26.29 31.4486 26.275 31.3886 26.215V26.17L31.4786 26.215V26.26ZM49.5995 35.395C49.5995 35.305 49.5545 35.215 49.4645 35.125C49.3745 35.065 49.2995 35.065 49.2395 35.125C49.1195 35.245 48.9545 35.305 48.7445 35.305C48.3545 35.305 47.9195 35.14 47.4395 34.81C46.9895 34.51 46.6595 34.255 46.4495 34.045H46.2695L46.1795 33.73H45.9095C45.7295 33.52 45.5045 33.205 45.2345 32.785C44.9945 32.335 44.7695 31.87 44.5595 31.39C44.3795 30.88 44.2895 30.445 44.2895 30.085C44.2895 29.845 44.3195 29.68 44.3795 29.59C44.1695 29.47 44.0195 29.26 43.9295 28.96C43.8695 28.66 43.8395 28.33 43.8395 27.97C43.8395 27.46 43.8695 27.025 43.9295 26.665L43.7945 26.485V23.425C43.8545 23.395 43.9145 23.335 43.9745 23.245C44.0645 23.155 44.1545 23.17 44.2445 23.29L43.8845 22.66C43.9445 22.66 44.0195 22.63 44.1095 22.57C44.1995 22.51 44.2445 22.45 44.2445 22.39C44.0945 22.24 44.0195 22 44.0195 21.67C44.0195 21.61 44.0195 21.535 44.0195 21.445C44.0195 21.355 44.0345 21.28 44.0645 21.22L44.2895 21.04C44.1395 20.92 44.0645 20.74 44.0645 20.5C44.0645 20.32 44.0795 20.125 44.1095 19.915C44.1695 19.705 44.2145 19.54 44.2445 19.42C44.2445 19.33 44.3495 19.3 44.5595 19.33C44.7695 19.33 44.8295 19.24 44.7395 19.06L44.5145 17.98L44.8295 17.8C44.7095 17.65 44.6495 17.47 44.6495 17.26C44.6495 17.11 44.6495 16.975 44.6495 16.855C44.6795 16.705 44.7095 16.57 44.7395 16.45H44.8295L45.1895 16.855C45.2195 16.825 45.2345 16.78 45.2345 16.72C45.2345 16.63 45.1745 16.57 45.0545 16.54C44.9345 16.48 44.8595 16.39 44.8295 16.27C45.0395 16.21 45.1145 16.015 45.0545 15.685C44.9945 15.325 45.0995 15.055 45.3695 14.875L45.2795 14.155C45.3395 14.155 45.4145 14.14 45.5045 14.11C45.5945 14.05 45.6395 13.975 45.6395 13.885L45.3695 13.615C45.5495 13.435 45.6995 13.075 45.8195 12.535C45.9695 11.965 46.1045 11.395 46.2245 10.825C46.3445 10.225 46.4495 9.79 46.5395 9.52C46.5995 9.46 46.6445 9.49 46.6745 9.61C46.7045 9.7 46.7195 9.745 46.7195 9.745C46.7495 9.805 46.7795 9.775 46.8095 9.655C46.8695 9.535 46.8695 9.46 46.8095 9.43H46.5395L46.8995 8.8L46.7195 8.53C46.8395 8.02 47.0045 7.525 47.2145 7.045C47.4545 6.565 47.5895 6.07 47.6195 5.56C47.6495 5.56 47.7245 5.515 47.8445 5.425C47.9945 5.305 48.0695 5.245 48.0695 5.245L47.8895 5.02C47.8895 4.81 47.9945 4.42 48.2045 3.85C48.4445 3.25 48.6845 2.665 48.9245 2.095C49.1945 1.525 49.3595 1.135 49.4195 0.924999L50.3195 0.834998L50.5445 1.285L50.7695 1.015C50.9195 1.105 51.0545 1.225 51.1745 1.375C51.2945 1.495 51.3695 1.645 51.3995 1.825L51.8495 2.005L51.7145 2.275C52.1945 2.425 52.5095 2.83 52.6595 3.49C52.8395 4.12 52.9295 4.795 52.9295 5.515C52.9595 6.205 52.9745 6.76 52.9745 7.18C52.8545 7.18 52.7345 7.15 52.6145 7.09C52.6745 7.27 52.7195 7.435 52.7495 7.585C52.7795 7.735 52.7945 7.9 52.7945 8.08L52.3445 8.53C52.5245 8.68 52.6145 8.875 52.6145 9.115C52.6145 9.355 52.5245 9.61 52.3445 9.88C52.1945 10.15 52.0445 10.405 51.8945 10.645L52.0745 10.825L51.6245 12.355L51.2645 12.58C51.2345 12.61 51.2195 12.655 51.2195 12.715C51.2195 12.925 51.2795 13.045 51.3995 13.075L50.9495 13.435L51.1745 13.705C50.9945 13.945 50.8295 14.215 50.6795 14.515C50.5595 14.785 50.4395 15.055 50.3195 15.325V15.235C50.2895 15.235 50.2295 15.385 50.1395 15.685C50.0495 15.985 49.9745 16.225 49.9145 16.405H49.6445L49.4645 17.08C49.3445 16.99 49.2545 16.99 49.1945 17.08C49.1645 17.14 49.2545 17.17 49.4645 17.17L49.2845 17.62L48.8345 17.8C48.9845 18.01 48.9245 18.31 48.6545 18.7C48.4145 19.09 48.2195 19.36 48.0695 19.51L47.8895 19.42V19.51L47.6195 19.96C47.6795 19.99 47.7245 19.975 47.7545 19.915C47.8145 19.825 47.8595 19.78 47.8895 19.78C47.9195 19.78 47.9195 19.825 47.8895 19.915C47.8595 19.975 47.8295 19.99 47.7995 19.96L47.4395 20.23V20.41C47.4395 20.62 47.3795 20.755 47.2595 20.815C47.1695 20.875 47.0645 20.935 46.9445 20.995C46.8545 21.055 46.8095 21.25 46.8095 21.58H46.4495C46.5095 21.67 46.5395 21.775 46.5395 21.895C46.5395 22.105 46.4795 22.3 46.3595 22.48C46.2395 22.63 46.1495 22.795 46.0895 22.975L46.3595 23.425L46.2695 23.965C46.2095 23.965 46.1495 23.965 46.0895 23.965C46.0595 23.935 46.0295 23.92 45.9995 23.92C45.8195 23.92 45.7295 23.965 45.7295 24.055C45.7295 24.115 45.7895 24.205 45.9095 24.325C46.0295 24.445 46.1195 24.535 46.1795 24.595C46.1195 24.685 46.0895 24.82 46.0895 25C46.0895 25.21 46.1195 25.42 46.1795 25.63C46.2395 25.81 46.2395 26.005 46.1795 26.215H46.0445L46.0895 26.71L45.9095 26.845L46.0445 28.24C46.1645 28.36 46.2395 28.645 46.2695 29.095C46.3295 29.515 46.3595 29.98 46.3595 30.49C46.4795 30.55 46.5695 30.73 46.6295 31.03C46.7195 31.33 46.7945 31.645 46.8545 31.975C46.9145 32.275 46.9595 32.5 46.9895 32.65L47.2595 32.74L47.4395 33.28L47.9795 33.595C47.8595 33.715 47.8595 33.82 47.9795 33.91C48.1295 34 48.2195 33.985 48.2495 33.865C48.6695 34.105 48.9245 34.255 49.0145 34.315C49.1345 34.375 49.2545 34.405 49.3745 34.405C49.5245 34.435 49.8545 34.495 50.3645 34.585L50.9495 34.225C50.9195 34.345 50.9645 34.39 51.0845 34.36C51.2345 34.33 51.2645 34.27 51.1745 34.18C51.2945 34.12 51.5195 34.015 51.8495 33.865C52.2095 33.715 52.4345 33.67 52.5245 33.73L52.4345 34.18H52.1645C51.9545 34.48 51.5945 34.72 51.0845 34.9L50.9945 34.765L50.3645 35.305L49.5995 35.395ZM46.8095 18.88C46.8695 18.97 46.8995 19.075 46.8995 19.195C46.8995 19.285 46.8995 19.39 46.8995 19.51H47.2595C47.3195 19.3 47.3795 19.105 47.4395 18.925C47.4995 18.745 47.6495 18.64 47.8895 18.61L48.0695 18.7L47.6195 18.43H47.8895C47.8895 18.28 47.9045 18.13 47.9345 17.98C47.9945 17.83 48.0395 17.68 48.0695 17.53H48.1595L48.2495 17.935C48.2195 17.485 48.3395 17.05 48.6095 16.63C48.8795 16.18 49.1645 15.82 49.4645 15.55C49.3745 15.55 49.3295 15.52 49.3295 15.46C49.3295 15.4 49.2995 15.355 49.2395 15.325L49.8695 14.605C49.7495 14.515 49.6895 14.47 49.6895 14.47C49.7195 14.44 49.7345 14.365 49.7345 14.245C49.8245 14.215 49.8995 14.185 49.9595 14.155C50.0495 14.125 50.1245 14.095 50.1845 14.065C50.0945 13.885 50.0495 13.735 50.0495 13.615L50.0945 13.525H50.3645C50.3645 13.045 50.4245 12.76 50.5445 12.67C50.6645 12.58 50.7995 12.355 50.9495 11.995L50.8145 11.545C51.1145 11.305 51.2795 11.11 51.3095 10.96C51.3695 10.78 51.3995 10.51 51.3995 10.15C51.4595 10.06 51.5195 10 51.5795 9.97C51.6395 9.94 51.6845 9.865 51.7145 9.745C51.5945 9.775 51.5345 9.79 51.5345 9.79C51.5345 9.79 51.5045 9.715 51.4445 9.565C51.6545 9.325 51.7745 9.055 51.8045 8.755C51.8645 8.425 51.9545 8.11 52.0745 7.81C51.9545 7.81 51.8945 7.78 51.8945 7.72C51.8945 7.66 51.8945 7.57 51.8945 7.45C51.9845 7.3 52.0445 7.09 52.0745 6.82C52.1045 6.52 52.1195 6.205 52.1195 5.875C52.1195 5.545 52.1045 5.23 52.0745 4.93C52.0745 4.6 52.0745 4.345 52.0745 4.165L51.8495 4.075C51.7895 4.015 51.7445 3.955 51.7145 3.895C51.6845 3.805 51.6545 3.745 51.6245 3.715H51.5345C51.4745 4.105 51.3095 4.465 51.0395 4.795C50.7995 5.095 50.6345 5.455 50.5445 5.875L50.6345 5.92C50.6045 6.04 50.5295 6.13 50.4095 6.19C50.3195 6.25 50.2445 6.34 50.1845 6.46C50.3345 6.61 50.4095 6.745 50.4095 6.865C50.4095 7.045 50.3195 7.225 50.1395 7.405C49.9595 7.585 49.8245 7.75 49.7345 7.9C49.8845 7.93 49.9595 7.945 49.9595 7.945C49.9595 7.945 49.9895 7.99 50.0495 8.08C49.8395 8.35 49.7195 8.665 49.6895 9.025C49.6595 9.385 49.5245 9.7 49.2845 9.97V9.88C49.2245 9.82 49.1945 9.79 49.1945 9.79C49.2245 9.76 49.1645 9.73 49.0145 9.7C49.0445 9.79 49.0745 9.88 49.1045 9.97C49.1645 10.03 49.2095 10.105 49.2395 10.195C49.1195 10.225 49.0595 10.24 49.0595 10.24C49.0895 10.24 49.0745 10.3 49.0145 10.42L49.1495 10.465L48.8345 10.6C48.9245 10.72 48.9695 10.885 48.9695 11.095C48.9695 11.395 48.8645 11.71 48.6545 12.04C48.4445 12.34 48.3095 12.625 48.2495 12.895C48.3395 12.985 48.3845 13.09 48.3845 13.21C48.3845 13.33 48.3545 13.48 48.2945 13.66C48.2345 13.81 48.1895 13.945 48.1595 14.065C48.0695 14.095 47.9795 14.14 47.8895 14.2C47.7995 14.26 47.7095 14.335 47.6195 14.425H47.7995L48.0695 14.605C47.5895 15.265 47.3795 15.97 47.4395 16.72C47.2595 16.81 47.1545 16.96 47.1245 17.17C47.0945 17.35 47.0795 17.53 47.0795 17.71C47.1395 17.8 47.1695 17.83 47.1695 17.8C47.1995 17.77 47.2295 17.83 47.2595 17.98C47.0795 18.16 46.9895 18.295 46.9895 18.385C46.9895 18.415 47.0045 18.475 47.0345 18.565C47.0645 18.625 47.0795 18.73 47.0795 18.88H46.8095ZM55.5944 33.28C55.3844 33.28 55.1594 33.235 54.9194 33.145C54.6794 33.055 54.4244 32.875 54.1544 32.605L54.3344 32.155C54.0044 32.125 53.8394 31.93 53.8394 31.57C53.8394 31.42 53.8544 31.255 53.8844 31.075C53.9444 30.865 53.9744 30.7 53.9744 30.58C53.8844 30.43 53.8094 30.28 53.7494 30.13C53.7194 29.95 53.7344 29.8 53.7944 29.68C54.0344 29.62 54.1244 29.5 54.0644 29.32H53.8844C53.8844 29.26 53.8694 29.215 53.8394 29.185C53.8394 29.125 53.8394 29.08 53.8394 29.05C53.8394 28.9 53.8694 28.765 53.9294 28.645C53.9894 28.495 54.0344 28.36 54.0644 28.24L53.8844 28.15C53.9144 28.15 53.9594 28.15 54.0194 28.15C54.1094 28.12 54.1244 28.09 54.0644 28.06C53.9744 28.09 53.9294 28.03 53.9294 27.88C53.8994 27.49 53.9444 27.115 54.0644 26.755C54.1844 26.365 54.2144 25.975 54.1544 25.585L54.0644 24.685L54.3344 24.595C54.2444 24.355 54.1694 23.935 54.1094 23.335C54.0494 22.735 54.0194 22.135 54.0194 21.535C54.0194 20.905 54.0344 20.47 54.0644 20.23C53.9444 19.99 53.8394 19.735 53.7494 19.465C53.6894 19.195 53.5844 18.94 53.4344 18.7C53.2844 18.7 53.0894 18.73 52.8494 18.79C52.6094 18.85 52.3844 18.88 52.1744 18.88C51.7544 18.88 51.5294 18.7 51.4994 18.34L51.8594 18.43L52.2194 17.98L53.1194 18.07C53.0894 18.01 53.0594 17.98 53.0294 17.98C53.0294 17.95 53.0294 17.935 53.0294 17.935C53.0294 17.875 53.0894 17.86 53.2094 17.89C53.3294 17.89 53.4344 17.89 53.5244 17.89C53.4944 17.83 53.5094 17.8 53.5694 17.8C53.6294 17.77 53.6744 17.74 53.7044 17.71L53.8844 17.89V17.8L53.7044 17.62C53.8544 17.62 54.0794 17.62 54.3794 17.62C54.6794 17.59 54.9494 17.575 55.1894 17.575C55.5194 17.575 55.7144 17.59 55.7744 17.62V17.8L56.3144 17.89C56.5244 18.43 56.6594 18.985 56.7194 19.555C56.7794 20.125 56.8244 20.695 56.8544 21.265H56.4944V21.4C56.6444 21.46 56.7344 21.655 56.7644 21.985C56.7944 22.285 56.8094 22.6 56.8094 22.93C56.8094 23.26 56.7944 23.575 56.7644 23.875C56.7644 24.145 56.7644 24.355 56.7644 24.505L56.4044 24.685C56.5244 24.805 56.5844 24.925 56.5844 25.045C56.5844 25.135 56.5694 25.24 56.5394 25.36C56.5094 25.45 56.4944 25.555 56.4944 25.675L56.6744 25.855C56.5544 26.005 56.4644 26.32 56.4044 26.8C56.3744 27.28 56.3444 27.775 56.3144 28.285C56.3144 28.795 56.3144 29.17 56.3144 29.41L56.5844 29.32C56.7044 29.2 56.7044 29.08 56.5844 28.96L57.0344 28.69V28.6C56.7944 28.57 56.7344 28.45 56.8544 28.24H57.0794C57.1394 28 57.1994 27.76 57.2594 27.52C57.3494 27.28 57.4544 27.055 57.5744 26.845C57.7244 26.845 57.8444 26.86 57.9344 26.89C58.0544 26.89 58.1294 26.815 58.1594 26.665L57.8894 26.17C58.0694 26.11 58.2194 26.005 58.3394 25.855C58.2794 25.825 58.2644 25.765 58.2944 25.675C58.3244 25.585 58.3694 25.555 58.4294 25.585C58.4594 25.585 58.4894 25.63 58.5194 25.72C58.5494 25.81 58.5794 25.855 58.6094 25.855C58.6394 25.285 58.6694 24.97 58.6994 24.91C58.7594 24.85 58.9394 24.655 59.2394 24.325L59.0594 24.145H59.4194C59.5094 23.545 59.6294 23.155 59.7794 22.975C59.9594 22.795 60.2294 22.555 60.5894 22.255H60.2294C60.2894 22.135 60.3644 22.015 60.4544 21.895C60.5444 21.775 60.6194 21.655 60.6794 21.535C60.9494 21.535 61.1894 21.49 61.3994 21.4V21.13L61.0394 21.04C61.0694 20.92 61.1294 20.815 61.2194 20.725C61.3094 20.605 61.3994 20.5 61.4894 20.41L61.8494 20.32L61.6694 20.05H62.3894V19.6H61.9844C62.0444 19.54 62.1644 19.495 62.3444 19.465C62.5544 19.405 62.6744 19.36 62.7044 19.33L62.5244 19.06H62.7944V18.97L62.4794 18.88C62.7194 18.64 62.9444 18.385 63.1544 18.115C63.3644 17.815 63.5144 17.5 63.6044 17.17H63.8744C63.9344 16.84 64.1294 16.66 64.4594 16.63C64.7894 16.6 65.0744 16.585 65.3144 16.585L65.4044 16.855L65.5844 16.585C65.6144 16.735 65.6294 16.84 65.6294 16.9C65.6594 16.93 65.7644 16.975 65.9444 17.035L66.2144 16.9L66.3044 17.035L66.3944 17.71L65.9444 18.34C65.8544 18.28 65.7944 18.25 65.7644 18.25C65.7644 18.22 65.7044 18.22 65.5844 18.25C65.6444 18.37 65.6744 18.49 65.6744 18.61C65.4644 18.7 65.2544 18.85 65.0444 19.06L64.5944 18.97V19.33L64.3244 19.51L64.1444 19.33C64.1144 19.54 63.8894 19.78 63.4694 20.05C63.0794 20.32 62.7644 20.5 62.5244 20.59L62.6594 20.95C62.5094 21.25 62.3144 21.505 62.0744 21.715C61.8344 21.925 61.6394 22.195 61.4894 22.525L61.2194 22.48L61.1294 22.885C61.1294 22.825 61.0844 22.78 60.9944 22.75C60.9344 22.72 60.8894 22.705 60.8594 22.705V22.75C60.8594 22.78 60.8744 22.84 60.9044 22.93C60.9644 22.99 61.0094 23.065 61.0394 23.155C60.7394 23.365 60.4544 23.695 60.1844 24.145C59.9144 24.565 59.7494 24.955 59.6894 25.315H59.4194L59.5994 25.495L59.1494 25.585C59.1494 25.645 59.1044 25.855 59.0144 26.215C58.9544 26.545 58.8644 26.845 58.7444 27.115C58.6544 27.355 58.5494 27.4 58.4294 27.25C58.3094 27.55 58.2344 27.85 58.2044 28.15C58.1744 28.45 58.0394 28.72 57.7994 28.96C57.6794 28.87 57.5894 28.93 57.5294 29.14C57.4994 29.35 57.4844 29.59 57.4844 29.86C57.4844 30.1 57.4844 30.28 57.4844 30.4L57.0794 30.49C57.1994 30.58 57.2444 30.64 57.2144 30.67C57.2144 30.7 57.2144 30.79 57.2144 30.94L56.9444 31.03C57.0044 31.09 57.0494 31.18 57.0794 31.3C57.1394 31.42 57.1844 31.525 57.2144 31.615L57.0344 31.795L57.0794 33.055C56.7794 33.085 56.5094 33.13 56.2694 33.19C56.0294 33.25 55.8044 33.28 55.5944 33.28ZM75.3469 34.315C75.2569 34.165 75.0769 34.045 74.8069 33.955C74.6869 34.135 74.4919 34.225 74.2219 34.225C73.9819 34.225 73.7119 34.165 73.4119 34.045C73.1419 33.955 72.9169 33.895 72.7369 33.865L72.6469 33.595C72.5569 33.685 72.4819 33.73 72.4219 33.73C72.3619 33.73 72.2869 33.715 72.1969 33.685C72.1369 33.655 72.0769 33.625 72.0169 33.595C71.9869 33.355 71.9419 33.25 71.8819 33.28C71.8219 33.31 71.7169 33.265 71.5669 33.145C71.6869 33.025 71.7619 32.92 71.7919 32.83C71.8519 32.71 71.8969 32.575 71.9269 32.425C72.3169 32.425 72.4969 32.365 72.4669 32.245C72.4669 32.125 72.5569 32.065 72.7369 32.065H72.7819C72.8719 32.065 72.9619 32.11 73.0519 32.2C73.1719 32.26 73.2919 32.29 73.4119 32.29C73.5919 32.29 73.7269 32.245 73.8169 32.155C73.9369 32.035 74.0569 31.975 74.1769 31.975C74.2969 31.975 74.4169 32.05 74.5369 32.2V31.795C74.7769 31.765 75.0019 31.69 75.2119 31.57C75.4519 31.45 75.6469 31.375 75.7969 31.345C75.8569 31.345 75.9019 31.375 75.9319 31.435C75.9919 31.495 76.0669 31.495 76.1569 31.435L76.2469 31.165C76.3669 31.105 76.4269 31.105 76.4269 31.165C76.4269 31.225 76.4569 31.285 76.5169 31.345L77.1019 31.165C77.1319 31.105 77.1469 31.045 77.1469 30.985C77.1769 30.895 77.2069 30.835 77.2369 30.805C77.2969 30.925 77.3419 31.015 77.3719 31.075L77.6869 30.265C77.4169 30.205 77.1769 30.055 76.9669 29.815C76.7869 29.545 76.6369 29.305 76.5169 29.095L76.6519 29.005C76.5319 28.975 76.3819 28.885 76.2019 28.735C76.0519 28.555 75.9469 28.405 75.8869 28.285H75.7969C75.7069 28.135 75.6919 28.045 75.7519 28.015C75.8119 27.955 75.7669 27.895 75.6169 27.835C75.5869 27.775 75.5569 27.775 75.5269 27.835C75.5269 27.865 75.4969 27.835 75.4369 27.745C75.2269 27.535 75.0019 27.235 74.7619 26.845C74.5219 26.425 74.3869 26.065 74.3569 25.765C74.2369 25.735 74.1319 25.705 74.0419 25.675C73.9819 25.645 73.9069 25.615 73.8169 25.585V25.315H73.3669V25.675C73.2769 25.675 73.1419 25.885 72.9619 26.305C72.7819 26.695 72.5719 27.1 72.3319 27.52C72.0919 27.94 71.8369 28.195 71.5669 28.285L71.5219 28.195C71.5219 28.495 71.3719 28.9 71.0719 29.41C70.8019 29.92 70.4719 30.4 70.0819 30.85C69.7219 31.3 69.4219 31.615 69.1819 31.795C69.0019 31.915 68.8219 32.035 68.6419 32.155C68.4919 32.245 68.3419 32.38 68.1919 32.56C68.1019 32.5 68.0569 32.455 68.0569 32.425C68.0869 32.365 68.0569 32.365 67.9669 32.425C67.7869 32.635 67.5319 32.77 67.2019 32.83C66.9019 32.89 66.6319 32.92 66.3919 32.92L66.3019 32.65C66.2119 32.68 66.1669 32.71 66.1669 32.74C66.1669 32.77 66.1219 32.77 66.0319 32.74C65.5519 32.56 65.3569 32.38 65.4469 32.2C65.5669 31.99 65.5819 31.78 65.4919 31.57L65.2219 31.435L65.5819 29.995L65.4919 29.905H65.2219C65.2219 29.725 65.2369 29.605 65.2669 29.545C65.2969 29.485 65.3269 29.365 65.3569 29.185L65.2669 29.14L65.2219 29.005L65.4919 29.095C65.5219 28.795 65.5219 28.495 65.4919 28.195L65.5819 28.285C65.5819 28.315 65.5969 28.3 65.6269 28.24C65.6569 28.18 65.6719 28.135 65.6719 28.105C65.5519 27.955 65.4919 27.715 65.4919 27.385C65.4919 27.055 65.5519 26.71 65.6719 26.35C65.7919 25.96 65.9119 25.675 66.0319 25.495L65.7619 25.405H66.1219C66.0919 25.195 66.0469 25 65.9869 24.82C65.9569 24.61 65.9419 24.4 65.9419 24.19H66.0319L66.1219 24.415L66.0319 23.83H66.3019C66.3019 23.59 66.3169 23.35 66.3469 23.11C66.4069 22.84 66.4519 22.585 66.4819 22.345C66.6619 22.345 66.7819 22.315 66.8419 22.255C66.6919 22.195 66.6169 22.165 66.6169 22.165C66.6469 22.135 66.6619 22.045 66.6619 21.895C66.9019 21.745 67.0369 21.58 67.0669 21.4C67.1269 21.22 67.3969 21.115 67.8769 21.085C68.2069 21.355 68.4319 21.58 68.5519 21.76C68.6719 21.91 68.7919 22.195 68.9119 22.615C69.0019 22.525 69.1219 22.465 69.2719 22.435V22.615C69.3919 22.825 69.2869 23.29 68.9569 24.01C68.6269 24.73 68.2819 25.585 67.9219 26.575C67.5919 27.565 67.4269 28.555 67.4269 29.545C67.4269 30.205 67.5319 30.805 67.7419 31.345H67.8769C67.9369 31.225 68.0719 31.12 68.2819 31.03C68.5219 30.91 68.7019 30.835 68.8219 30.805V30.715C68.7919 30.655 68.7769 30.61 68.7769 30.58C68.8069 30.52 68.8219 30.475 68.8219 30.445C69.0319 30.295 69.2119 30.13 69.3619 29.95C69.5419 29.77 69.7369 29.65 69.9469 29.59V29.185C70.3369 28.945 70.6369 28.6 70.8469 28.15C71.0569 27.7 71.3569 27.415 71.7469 27.295V27.16L71.5219 27.115C71.8519 26.785 72.1669 26.425 72.4669 26.035C72.3769 25.975 72.3169 25.885 72.2869 25.765C72.5869 25.585 72.7669 25.33 72.8269 25C72.8869 24.67 73.0669 24.445 73.3669 24.325C73.2169 24.055 73.0969 23.8 73.0069 23.56H73.3219C73.2919 23.5 73.2769 23.44 73.2769 23.38C73.2769 23.32 73.2469 23.26 73.1869 23.2C73.0669 23.2 73.0069 23.185 73.0069 23.155C73.0069 23.095 73.0069 23.005 73.0069 22.885C73.2469 22.795 73.3519 22.57 73.3219 22.21C73.2919 21.82 73.2919 21.52 73.3219 21.31H73.5469V21.22C73.4869 21.1 73.4869 20.935 73.5469 20.725L73.8169 20.815C73.8469 20.485 73.9669 20.245 74.1769 20.095C74.4169 19.945 74.5969 19.705 74.7169 19.375C74.7769 19.315 74.7769 19.285 74.7169 19.285C74.6869 19.255 74.7169 19.225 74.8069 19.195L74.8969 18.97L75.1669 19.105V18.61C75.4969 18.49 75.8569 18.28 76.2469 17.98L76.5169 18.115C76.5169 18.085 76.5169 18.07 76.5169 18.07C76.5469 18.07 76.5619 18.055 76.5619 18.025C76.5619 17.935 76.5169 17.86 76.4269 17.8C76.3669 17.71 76.4419 17.605 76.6519 17.485C76.8019 17.365 76.9669 17.32 77.1469 17.35C77.3269 17.35 77.4769 17.29 77.5969 17.17L77.7319 16.63H78.3619C78.5719 16.54 78.7069 16.405 78.7669 16.225C78.8569 16.045 79.0219 15.925 79.2619 15.865C79.2919 15.925 79.3519 15.955 79.4419 15.955C79.5319 15.955 79.6669 15.925 79.8469 15.865V15.82C79.8469 15.64 79.9219 15.565 80.0719 15.595C80.2219 15.595 80.3569 15.595 80.4769 15.595C80.6869 15.805 80.8969 15.955 81.1069 16.045C81.3469 16.105 81.5569 16.21 81.7369 16.36C81.9469 16.51 82.0669 16.78 82.0969 17.17C81.8869 17.32 81.7369 17.515 81.6469 17.755C81.5869 17.995 81.3919 18.145 81.0619 18.205C81.0919 18.775 80.9419 19.3 80.6119 19.78C80.2819 20.26 80.1169 20.77 80.1169 21.31V21.4C80.1169 21.46 80.1319 21.52 80.1619 21.58C80.2219 21.64 80.2369 21.715 80.2069 21.805H79.9819C80.0119 21.925 80.0269 22.06 80.0269 22.21C80.0569 22.33 80.0419 22.465 79.9819 22.615C79.8919 22.615 79.8319 22.63 79.8019 22.66C79.8019 22.69 79.7419 22.735 79.6219 22.795C79.4719 22.615 79.3969 22.45 79.3969 22.3V22.075C79.3969 21.925 79.3819 21.805 79.3519 21.715C79.5619 21.655 79.6819 21.61 79.7119 21.58C79.5019 21.55 79.3819 21.46 79.3519 21.31C79.3519 21.16 79.3519 20.995 79.3519 20.815C79.4419 20.815 79.5019 20.83 79.5319 20.86C79.5919 20.86 79.6519 20.86 79.7119 20.86C79.7419 20.74 79.7719 20.65 79.8019 20.59C79.8319 20.53 79.8619 20.44 79.8919 20.32L79.6219 20.23C79.7719 20.17 79.8469 19.93 79.8469 19.51C79.8469 19.06 79.8919 18.745 79.9819 18.565L79.7119 18.475C79.6819 18.505 79.5619 18.595 79.3519 18.745C79.1419 18.895 78.9319 19.045 78.7219 19.195C78.5119 19.315 78.3919 19.375 78.3619 19.375C78.2419 19.405 78.1669 19.375 78.1369 19.285C78.1069 19.165 78.0169 19.225 77.8669 19.465L78.1369 19.555C77.4769 19.945 76.8319 20.545 76.2019 21.355C75.5719 22.135 75.1369 22.915 74.8969 23.695C74.8369 23.935 74.8069 24.145 74.8069 24.325C74.8069 24.835 74.9269 25.39 75.1669 25.99C75.4069 26.56 75.7069 27.1 76.0669 27.61C76.4269 28.09 76.7719 28.435 77.1019 28.645V29.095C77.4619 29.125 77.8069 29.275 78.1369 29.545C78.4669 29.785 78.6919 30.055 78.8119 30.355H78.9019C78.9319 30.235 78.9469 30.175 78.9469 30.175C78.9469 30.175 79.0069 30.16 79.1269 30.13V30.085L78.9919 29.995H79.1719C79.3519 29.875 79.5319 29.815 79.7119 29.815C79.8919 29.815 80.0719 29.77 80.2519 29.68C80.2519 29.53 80.3119 29.425 80.4319 29.365C80.5519 29.275 80.6719 29.215 80.7919 29.185V28.825C80.9419 28.765 81.0919 28.705 81.2419 28.645C81.3919 28.585 81.4819 28.465 81.5119 28.285C81.4819 28.255 81.4669 28.195 81.4669 28.105C81.4669 28.045 81.4819 27.985 81.5119 27.925C81.5419 27.865 81.5719 27.805 81.6019 27.745L81.8719 27.835C81.9319 27.415 82.0069 27.235 82.0969 27.295C82.2169 27.325 82.3519 27.235 82.5019 27.025C82.6519 26.815 82.7269 26.605 82.7269 26.395C82.7269 26.185 82.7569 25.99 82.8169 25.81C82.8769 25.63 83.0719 25.495 83.4019 25.405C83.3719 25.315 83.3419 25.24 83.3119 25.18C83.2819 25.12 83.2369 25.045 83.1769 24.955C83.3269 24.925 83.4469 24.895 83.5369 24.865C83.6269 24.835 83.7319 24.805 83.8519 24.775C83.8819 25.675 83.7019 26.47 83.3119 27.16C82.9219 27.82 82.4419 28.42 81.8719 28.96C81.3019 29.5 80.7469 30.055 80.2069 30.625C80.0569 30.535 79.9519 30.475 79.8919 30.445V30.625C79.9519 30.625 80.0119 30.64 80.0719 30.67C80.1319 30.7 80.1469 30.715 80.1169 30.715H79.8919C79.7119 30.925 79.5619 31.045 79.4419 31.075C79.3219 31.075 79.2619 31.285 79.2619 31.705C79.2319 31.825 79.2169 31.975 79.2169 32.155C79.2169 32.335 79.1869 32.5 79.1269 32.65C78.7969 33.22 78.2269 33.64 77.4169 33.91C76.6369 34.15 75.9469 34.285 75.3469 34.315ZM68.9119 19.285C68.8819 19.135 68.8669 19.06 68.8669 19.06C68.8969 19.06 68.8519 19.03 68.7319 18.97C68.6719 19.03 68.5819 19.06 68.4619 19.06C68.3719 19.06 68.2819 19.045 68.1919 19.015C68.1019 18.985 67.9969 18.955 67.8769 18.925C67.8469 18.775 67.8319 18.64 67.8319 18.52C67.8319 18.37 67.8319 18.235 67.8319 18.115C67.9819 17.965 68.1019 17.8 68.1919 17.62C68.2819 17.44 68.4619 17.395 68.7319 17.485C68.7919 17.305 68.8669 17.155 68.9569 17.035C69.0469 16.915 69.1219 16.78 69.1819 16.63L69.3619 16.81C69.3919 16.39 69.6619 16.15 70.1719 16.09C70.7119 16 71.1319 15.955 71.4319 15.955C71.4919 16.135 71.5219 16.27 71.5219 16.36C71.1019 16.63 70.7869 17.005 70.5769 17.485C70.3969 17.935 70.2019 18.34 69.9919 18.7C69.7819 19.06 69.4219 19.255 68.9119 19.285Z" fill="#B81C26"/>
</svg>
