<svg width="118" height="72" viewBox="0 0 118 72" fill="none" xmlns="http://www.w3.org/2000/svg">
<path d="M0 14.4C0 6.4471 6.4471 0 14.4 0H103.6C111.553 0 118 6.4471 118 14.4V14.4H0V14.4Z" fill="#ffffff"/>
<path d="M118 19.2C118 27.1529 111.553 33.6 103.6 33.6L14.4 33.6C6.44709 33.6 0 27.1529 0 19.2V19.2L118 19.2V19.2Z" fill="#ffffff"/>
<path d="M0 52.8C0 44.8471 6.4471 38.4 14.4 38.4H103.6C111.553 38.4 118 44.8471 118 52.8V52.8H0V52.8Z" fill="#ffffff"/>
<path d="M118 57.6C118 65.5529 111.553 72 103.6 72L14.4 72C6.44709 72 0 65.5529 0 57.6V57.6L118 57.6V57.6Z" fill="#ffffff"/>
</svg>
